<?xml version="1.0" encoding="UTF-8" standalone="no"?>
<svg width="118px" height="118px" viewBox="0 0 118 118" version="1.1" xmlns="http://www.w3.org/2000/svg" xmlns:xlink="http://www.w3.org/1999/xlink">
    <!-- Generator: Sketch 41.2 (35397) - http://www.bohemiancoding.com/sketch -->
    <title>circular-check-button</title>
    <desc>Created with Sketch.</desc>
    <defs></defs>
    <g id="Page-1" stroke="none" stroke-width="1" fill="none" fill-rule="evenodd">
        <g id="Desktop-HD" transform="translate(-1124.000000, -596.000000)" stroke-width="4" stroke="#000000" fill="#000000">
            <g id="circular-check-button" transform="translate(1126.000000, 598.000000)">
                <g id="Capa_1">
                    <g id="_x37_7_Essential_Icons_65_">
                        <path d="M56.8320312,0.3359375 C25.4248561,0.3359375 0,25.7607936 0,57.1679688 C0,88.5751439 25.4248561,114 56.8320312,114 C88.2392064,114 113.664062,88.5751439 113.664062,57.1679688 C113.664062,25.7607936 88.2392064,0.3359375 56.8320312,0.3359375 Z M56.8320313,108.017681 C28.7151316,108.017681 5.98231908,85.2848684 5.98231908,57.1679688 C5.98231908,29.0510691 28.7151316,6.31825658 56.8320313,6.31825658 C84.9489309,6.31825658 107.681743,29.0510691 107.681743,57.1679688 C107.681743,85.2848684 84.9489309,108.017681 56.8320313,108.017681 Z M91.080808,37.8749897 C89.8843442,36.6785259 88.0896484,36.6785259 86.8931846,37.8749897 L48.7559005,76.1618318 L32.753197,60.1591283 C31.5567331,58.9626645 29.6124794,58.9626645 28.5655736,60.1591283 C27.3691098,61.3555921 27.3691098,63.2998458 28.5655736,64.3467516 L46.6620888,82.4432669 C47.2603207,83.0414988 48.0081106,83.3406147 48.7559005,83.3406147 C49.5036904,83.3406147 50.2514803,83.0414988 50.8497122,82.4432669 L91.080808,42.0626131 C92.2772718,40.8661493 92.2772718,39.0714535 91.080808,37.8749897 Z" id="Tick"></path>
                    </g>
                </g>
            </g>
        </g>
    </g>
</svg>