<?xml version="1.0" encoding="UTF-8" standalone="no"?>
<svg width="110px" height="133px" viewBox="0 0 110 133" version="1.1" xmlns="http://www.w3.org/2000/svg" xmlns:xlink="http://www.w3.org/1999/xlink">
    <!-- Generator: Sketch 41.2 (35397) - http://www.bohemiancoding.com/sketch -->
    <title>money-bag-with-dollar-symbol</title>
    <desc>Created with Sketch.</desc>
    <defs></defs>
    <g id="Page-1" stroke="none" stroke-width="1" fill="none" fill-rule="evenodd">
        <g id="Desktop-HD" transform="translate(-1073.000000, -843.000000)" fill="#000000">
            <g id="money-bag-with-dollar-symbol" transform="translate(1073.000000, 843.000000)">
                <g id="Capa_1">
                    <g id="Group">
                        <path d="M64.0041076,88.3445459 C63.5095751,87.8006541 62.8838527,87.3938306 62.2372521,87.0549153 C60.8293768,86.3176259 59.2896884,85.8704329 57.7609065,85.4667388 L57.7609065,97.3635106 C60.2422946,97.0818635 63.0910765,96.1774635 64.3939377,93.8510588 L64.3939377,93.8510588 C65.0159207,92.7398047 65.1396317,91.3744424 64.886289,90.1373859 C64.7488669,89.4670659 64.4649858,88.8518235 64.0041076,88.3445459 Z" id="Shape"></path>
                        <path d="M64.3808499,93.8819792 C64.3876191,93.8705429 64.3914268,93.8633423 64.3986191,93.8510588 L64.3986191,93.8510588 C64.392696,93.8612244 64.3867729,93.87139 64.3808499,93.8819792 Z" id="Shape"></path>
                        <path d="M46.1217847,69.3264847 C45.6951841,69.9520541 45.4275071,70.6627435 45.3536544,71.4181835 C45.2798017,72.1751882 45.3212465,73.0173129 45.6076204,73.72988 C45.8802833,74.4089624 46.4514731,74.9102941 47.0410482,75.3139882 C47.7026062,75.7658753 48.4302266,76.1188729 49.1712465,76.4180447 C49.7929178,76.6693365 50.4921813,76.9096753 51.2459773,77.1418776 L51.2459773,66.3767012 C49.3416997,66.7847765 47.2610482,67.6560047 46.1217847,69.3264847 Z" id="Shape"></path>
                        <path d="M64.4606724,93.7631224 C64.4395185,93.8008198 64.4166724,93.8402115 64.3942493,93.8817211 L64.3942493,93.8817211 C64.4204801,93.8334345 64.4412108,93.7978548 64.4606724,93.7631224 Z" id="Shape"></path>
                        <path d="M64.5054958,93.6537904 C64.5109958,93.6436247 64.5118419,93.6427776 64.5054958,93.6537904 L64.5054958,93.6537904 Z" id="Shape"></path>
                        <path d="M61.9343626,28.9373576 C72.0085552,20.4385012 78.7400567,1.29182118 74.5974504,0.454390588 C69.0930878,-0.658741176 57.14017,4.22220235 51.3628329,5.08216471 C43.1686119,6.07575294 34.243966,-3.84135294 29.2344476,1.68644 C25.1613314,6.18090118 32.1545892,22.5258188 43.0956941,29.6464824 C10.4534278,45.7579459 -35.4274788,126.638845 44.6141926,132.507431 C155.365496,140.627941 99.9083569,44.6376165 61.9343626,28.9373576 Z M71.445779,92.7238447 C71.1051841,95.87704 69.4411615,98.72856 66.9538527,100.664414 C64.3275637,102.708546 61.0334844,103.659261 57.7605949,103.925574 L57.7605949,107.409548 C57.7605949,108.3418 57.3551841,109.243384 56.6602833,109.860504 C55.7051841,110.7092 54.3016714,110.918558 53.1424646,110.382176 C51.9979037,109.853306 51.2459773,108.674456 51.2459773,107.409548 L51.2459773,103.60168 C50.6847592,103.494654 50.1275921,103.367287 49.5769688,103.215511 C46.5181586,102.371508 43.6809065,100.726376 41.6083569,98.29232 C40.5759773,97.0790471 39.7343059,95.7024188 39.1522096,94.2162612 C39.0001416,93.8279012 38.8645892,93.4323435 38.745864,93.0324047 C38.6383569,92.6703318 38.5274221,92.3023129 38.4890935,91.9249059 C38.4245892,91.2918259 38.5495467,90.6459153 38.8433994,90.0819953 C39.4473088,88.9219224 40.7199433,88.2212471 42.0193768,88.3376612 C43.2982436,88.4515718 44.4191218,89.3428282 44.821728,90.5670541 C44.9457507,90.9441482 45.0298867,91.3306306 45.1691785,91.7036565 C45.3072238,92.0741788 45.4739377,92.4343741 45.6699433,92.7773576 C46.0569688,93.4526847 46.5418414,94.0754376 47.100255,94.6158871 C48.2513598,95.7296447 49.7175071,96.4534776 51.2459773,96.8840847 L51.2459773,83.9402118 C48.2572805,83.1631788 45.1722946,82.1595765 42.7043059,80.2324847 C41.5049008,79.2955388 40.4871671,78.1313976 39.8206232,76.7535176 C39.1173088,75.29928 38.825949,73.6791835 38.8141076,72.07004 C38.8019547,70.4361741 39.1110765,68.8167035 39.7897734,67.3280424 C40.4254674,65.9342024 41.3406799,64.6827506 42.4628045,63.6453506 C44.862238,61.4275365 48.0494334,60.19048 51.246289,59.7360894 L51.246289,59.4513129 L51.246289,56.1194282 C51.246289,55.1874894 51.6516997,54.2855929 52.3466006,53.6684729 C53.3020113,52.8200894 54.7049008,52.6104188 55.8644193,53.1468 C57.0086686,53.6759835 57.7609065,54.85452 57.7609065,56.1194282 L57.7609065,59.4513129 L57.7609065,59.7163741 C58.1868839,59.7702 58.6116147,59.8346659 59.0341643,59.9116494 C62.1733711,60.4821412 65.243711,61.7839765 67.5393768,64.0568682 C68.6269122,65.1333859 69.5171955,66.4161318 70.1432295,67.8149788 C70.3180453,68.2052165 70.4710482,68.6045294 70.6034844,69.0116659 C70.7268839,69.3912635 70.8509065,69.7821271 70.9098017,70.1783106 C71.0039093,70.8107647 70.907932,71.4641859 70.6383853,72.0428141 C70.086204,73.2282353 68.847847,73.9830494 67.5449858,73.9270329 C66.2648725,73.8710165 65.1050425,73.0338988 64.6466572,71.8322047 C64.51017,71.4748259 64.4419263,71.09648 64.3026346,70.74004 C64.1620963,70.3792188 63.9801133,70.0349835 63.7703966,69.7098376 C63.3628045,69.0776965 62.8346176,68.5356824 62.2316431,68.0891153 C60.9259773,67.1208753 59.3423513,66.6164141 57.7599717,66.3344541 L57.7599717,78.7212918 C59.6405666,79.1734918 61.5227195,79.6666871 63.3244759,80.3801929 C66.0476771,81.4585882 68.6281586,83.1121694 70.1145609,85.7195953 C69.883966,85.3133976 69.6596034,84.9175271 70.1223513,85.7330518 C70.5766856,86.5341812 70.3598017,86.1523929 70.1316997,85.7508894 C71.3142776,87.84384 71.7028612,90.3464306 71.445779,92.7238447 Z" id="Shape"></path>
                        <path d="M64.3636487,93.93524 C64.337841,93.9814088 64.315418,94.0220712 64.2976487,94.0529916 C64.3128795,94.0263069 64.3357256,93.986068 64.3636487,93.93524 Z" id="Shape"></path>
                    </g>
                </g>
            </g>
        </g>
    </g>
</svg>