<?xml version="1.0" encoding="UTF-8" standalone="no"?>
<svg width="89px" height="89px" viewBox="0 0 89 89" version="1.1" xmlns="http://www.w3.org/2000/svg" xmlns:xlink="http://www.w3.org/1999/xlink">
    <!-- Generator: Sketch 42 (36781) - http://www.bohemiancoding.com/sketch -->
    <title>edit-tools</title>
    <desc>Created with Sketch.</desc>
    <defs></defs>
    <g id="Page-1" stroke="none" stroke-width="1" fill="none" fill-rule="evenodd">
        <g id="edit-tools" fill-rule="nonzero">
            <g id="Layer_1">
                <circle id="Oval" fill="#F3A625" cx="44.5" cy="44.5" r="44.5"></circle>
                <path d="M21.2958574,28.5258906 L60.4732402,67.7032734 L67.7030996,60.4734141 L28.5257168,21.2960313 L21.2958574,28.5258906 Z M28.1253906,28.1274766 C27.675002,28.5782129 26.94475,28.5782129 26.4931445,28.1266074 C26.044668,27.6770879 26.044668,26.9459668 26.4931445,26.4952305 C26.94475,26.0462324 27.675002,26.0462324 28.1253906,26.4952305 C28.5769961,26.9461406 28.5769961,27.6772617 28.1253906,28.1274766 Z" id="Shape" fill="#FFFFFF"></path>
                <path d="M24.9097441,24.9133945 L26.4929707,26.4954043 C26.9445762,26.0464062 27.6748281,26.0464062 28.1252168,26.4954043 C28.5768223,26.9461406 28.5768223,27.6772617 28.1252168,28.1276504 L64.0869531,64.0893867 L67.7030996,60.4732402 L28.5257168,21.2958574 L24.9097441,24.9133945 Z" id="Shape" fill="#8ECDCF"></path>
                <g id="Group" transform="translate(21.207031, 25.074219)" fill="#FFFFFF">
                    <rect id="Rectangle-path" transform="translate(11.143019, 1.681339) rotate(-135.000000) translate(-11.143019, -1.681339) " x="10.6430189" y="0.525654003" width="0.5" height="2.31137041"></rect>
                    <rect id="Rectangle-path" transform="translate(14.415056, 4.942179) rotate(-134.967588) translate(-14.415056, -4.942179) " x="13.9151079" y="3.78039834" width="0.5" height="2.31137078"></rect>
                    <rect id="Rectangle-path" transform="translate(17.676281, 8.206183) rotate(-134.902765) translate(-17.676281, -8.206183) " x="17.1763261" y="7.04508103" width="0.5" height="2.31085226"></rect>
                    <rect id="Rectangle-path" transform="translate(20.940985, 11.472088) rotate(-134.902765) translate(-20.940985, -11.472088) " x="20.4410295" y="10.3114026" width="0.5" height="2.30998313"></rect>
                    <rect id="Rectangle-path" transform="translate(24.205098, 14.739950) rotate(-134.902765) translate(-24.205098, -14.739950) " x="23.7051425" y="13.5791042" width="0.5" height="2.31033078"></rect>
                    <rect id="Rectangle-path" transform="translate(27.466267, 18.001559) rotate(-135.000000) translate(-27.466267, -18.001559) " x="26.9662666" y="16.8461348" width="0.5" height="2.31084893"></rect>
                    <rect id="Rectangle-path" transform="translate(30.734110, 21.266589) rotate(-135.129647) translate(-30.734110, -21.266589) " x="30.2341105" y="20.1106032" width="0.5" height="2.31033337"></rect>
                    <rect id="Rectangle-path" transform="translate(33.999282, 24.534305) rotate(-134.935177) translate(-33.999282, -24.534305) " x="33.4993306" y="23.3732452" width="0.5" height="2.31032893"></rect>
                    <rect id="Rectangle-path" transform="translate(37.266212, 27.799727) rotate(-135.064823) translate(-37.266212, -27.799727) " x="36.7662119" y="26.6436327" width="0.5" height="2.31137189"></rect>
                    <rect id="Rectangle-path" transform="translate(40.529330, 31.063356) rotate(-135.194469) translate(-40.529330, -31.063356) " x="40.0293321" y="29.9066949" width="0.5" height="2.31086224"></rect>
                    <rect id="Rectangle-path" transform="translate(43.793437, 34.327157) rotate(-134.870353) translate(-43.793437, -34.327157) " x="43.2934787" y="33.1659795" width="0.5" height="2.31137633"></rect>
                    <rect id="Rectangle-path" transform="translate(42.553473, 32.272141) rotate(-135.000000) translate(-42.553473, -32.272141) " x="42.0534725" y="31.6952109" width="0.5" height="1.15386003"></rect>
                    <rect id="Rectangle-path" transform="translate(39.287104, 29.002547) rotate(-135.076972) translate(-39.287104, -29.002547) " x="38.7871039" y="28.4247966" width="0.5" height="1.15446418"></rect>
                    <rect id="Rectangle-path" transform="translate(36.027296, 25.739524) rotate(-134.846045) translate(-36.027296, -25.739524) " x="35.5273378" y="25.1566495" width="0.5" height="1.15438567"></rect>
                    <rect id="Rectangle-path" transform="translate(32.755984, 22.476343) rotate(-135.076972) translate(-32.755984, -22.476343) " x="32.2559841" y="21.8981592" width="0.5" height="1.15533337"></rect>
                    <rect id="Rectangle-path" transform="translate(29.495250, 19.209598) rotate(-135.153955) translate(-29.495250, -19.209598) " x="28.9952511" y="18.631632" width="0.5" height="1.15386419"></rect>
                    <rect id="Rectangle-path" transform="translate(26.231836, 15.941771) rotate(-134.886559) translate(-26.231836, -15.941771) " x="25.731882" y="15.3588905" width="0.5" height="1.15386229"></rect>
                    <rect id="Rectangle-path" transform="translate(22.963865, 12.683163) rotate(-135.226881) translate(-22.963865, -12.683163) " x="22.4638678" y="12.1040132" width="0.5" height="1.1552597"></rect>
                    <rect id="Rectangle-path" transform="translate(19.698720, 9.414733) rotate(-135.040515) translate(-19.698720, -9.414733) " x="19.19872" y="8.83709611" width="0.5" height="1.15472945"></rect>
                    <rect id="Rectangle-path" transform="translate(16.435056, 6.148935) rotate(-134.959485) translate(-16.435056, -6.148935) " x="15.9351098" y="5.56512019" width="0.5" height="1.15472945"></rect>
                    <rect id="Rectangle-path" transform="translate(13.170553, 2.887741) rotate(-135.076972) translate(-13.170553, -2.887741) " x="12.6705534" y="2.30999183" width="0.5" height="1.15446418"></rect>
                    <polygon id="Shape" points="3.58798633 32.1359199 0.0893476562 42.6290547 10.5828301 39.1307637"></polygon>
                </g>
                <rect id="Rectangle-path" fill="#F78A7D" transform="translate(44.511245, 44.487256) rotate(-135.000000) translate(-44.511245, -44.487256) " x="39.5651872" y="21.5501594" width="9.89211607" height="45.8741929"></rect>
                <g id="Group" transform="translate(24.683594, 24.683594)" fill="#D94C3B">
                    <rect id="Rectangle-path" transform="translate(17.202201, 17.179969) rotate(-134.995949) translate(-17.202201, -17.179969) " x="15.9649911" y="-5.76040121" width="2.47442077" height="45.8807397"></rect>
                    <rect id="Rectangle-path" transform="translate(22.451046, 22.429585) rotate(-134.991897) translate(-22.451046, -22.429585) " x="21.2141835" y="-0.507511284" width="2.47372435" height="45.8741933"></rect>
                </g>
                <g id="Group" transform="translate(21.207031, 57.189453)" fill="#E1EFFA">
                    <polygon id="Shape" points="3.58798633 0.0206855469 5.33721875 1.76991797 0.0893476562 10.5138203"></polygon>
                    <polygon id="Shape" points="10.5828301 7.0155293 8.83394531 5.26629687 0.0893476562 10.5138203"></polygon>
                </g>
                <polygon id="Shape" fill="#74706F" points="22.6664922 63.5950195 21.2963789 67.7032734 25.4063711 66.3352461"></polygon>
                <g id="Group" transform="translate(21.207031, 63.447266)" fill="#000000">
                    <polygon id="Shape" points="1.45946094 0.147753906 0.0893476562 4.25600781 2.14486523 0.831246094"></polygon>
                    <polygon id="Shape" points="3.51445703 2.20188086 0.0893476562 4.25600781 4.19933984 2.88798047"></polygon>
                </g>
                <rect id="Rectangle-path" fill="#FFFFFF" transform="translate(61.315515, 27.686159) rotate(-135.004051) translate(-61.315515, -27.686159) " x="56.3687594" y="26.8614683" width="9.89351094" height="1.64938206"></rect>
                <g id="Group" transform="translate(57.189453, 23.466797)" fill="#E1EFFA">
                    <rect id="Rectangle-path" transform="translate(1.501427, 1.595553) rotate(-135.028358) translate(-1.501427, -1.595553) " x="0.264390265" y="0.770862282" width="2.47407339" height="1.64938226"></rect>
                    <rect id="Rectangle-path" transform="translate(6.744464, 6.844214) rotate(-134.995949) translate(-6.744464, -6.844214) " x="5.50742769" y="6.01882773" width="2.47407309" height="1.65077277"></rect>
                </g>
                <path d="M63.2967305,21.9732656 C62.8793691,21.5545137 62.3012168,21.2969004 61.6630938,21.2969004 C61.0258398,21.2969004 60.4487305,21.5545137 60.0308477,21.9732656 L58.3986016,23.6055117 L65.3948359,30.600877 L67.0262129,28.9686309 C67.4440957,28.5512695 67.7034473,27.9750293 67.7030996,27.3363848 C67.7030996,26.6991309 67.4454863,26.1220215 67.0276035,25.7044863 L63.2967305,21.9732656 Z" id="Shape" fill="#D94C3B"></path>
                <path d="M59.9147305,23.4897422 C59.7210859,23.2952285 59.7224766,22.9814688 59.9147305,22.7902578 L60.3819805,22.3224863 C60.7237266,21.9807402 61.1789824,21.7916152 61.6622246,21.7916152 C62.1485957,21.7916152 62.6033301,21.9798711 62.9469883,22.3224863 L63.646125,23.0219707 C63.839248,23.2159629 63.839248,23.5297227 63.646125,23.7228457 C63.4524805,23.9145781 63.1401113,23.9154473 62.9457715,23.7228457 L62.2475039,23.0233613 C62.0900156,22.865873 61.8857676,22.7817402 61.6627461,22.7817402 C61.4447656,22.7817402 61.2365195,22.865873 61.0811172,23.0224922 L60.6147363,23.488873 C60.4216133,23.6816484 60.1075059,23.6825176 59.9147305,23.4897422 Z" id="Shape" fill="#F68A7D"></path>
            </g>
        </g>
    </g>
</svg>