<?xml version="1.0" encoding="UTF-8" standalone="no"?>
<svg width="88px" height="88px" viewBox="0 0 88 88" version="1.1" xmlns="http://www.w3.org/2000/svg" xmlns:xlink="http://www.w3.org/1999/xlink">
    <!-- Generator: Sketch 42 (36781) - http://www.bohemiancoding.com/sketch -->
    <title>computer</title>
    <desc>Created with Sketch.</desc>
    <defs></defs>
    <g id="Page-1" stroke="none" stroke-width="1" fill="none" fill-rule="evenodd">
        <g id="computer" fill-rule="nonzero">
            <g id="Layer_1">
                <circle id="Oval" fill="#FFD213" cx="44" cy="44" r="44"></circle>
                <polygon id="Shape" fill="#CEE2F2" points="50.136625 62.9538594 37.8575312 62.9538594 39.4186719 55.361625 48.577375 55.361625"></polygon>
                <polygon id="Shape" fill="#A6C8E6" points="50.136625 62.9538594 48.577375 55.361625 39.4186719 55.361625 47.0083281 62.9538594"></polygon>
                <rect id="Rectangle-path" fill="#F2F9FF" x="34.5707656" y="62.9552344" width="18.8548594" height="0.91746875"></rect>
                <path d="M21.5850937,24.1278125 C20.9532812,24.1278125 20.4385156,24.6453281 20.4385156,25.27525 L20.4385156,54.2153906 C20.4385156,54.8472031 20.9532812,55.3611094 21.5850937,55.3611094 L66.4162812,55.3611094 C67.045,55.3611094 67.562,54.8466875 67.562,54.2153906 L67.562,25.2754219 C67.562,24.6453281 67.045,24.1279844 66.4162812,24.1279844 L21.5850937,24.1279844 L21.5850937,24.1278125 Z" id="Shape" fill="#8ECDCF"></path>
                <rect id="Rectangle-path" fill="#FFFFFF" x="22.8196719" y="26.51" width="42.3587656" height="26.4747656"></rect>
                <g id="Group" transform="translate(25.093750, 28.875000)" fill="#8ECDCF">
                    <rect id="Rectangle-path" x="0.07871875" y="0.077515625" width="1.8541875" height="0.621671875"></rect>
                    <rect id="Rectangle-path" x="0.07871875" y="3.03823438" width="1.8541875" height="0.6235625"></rect>
                </g>
                <g id="Group" transform="translate(27.500000, 28.875000)" fill="#D94C3B">
                    <rect id="Rectangle-path" x="0.00446875" y="0.077515625" width="2.11285937" height="0.621671875"></rect>
                    <rect id="Rectangle-path" x="0.00446875" y="3.03823438" width="6.69023437" height="0.6235625"></rect>
                </g>
                <g id="Group" transform="translate(26.984375, 28.875000)" fill="#8ECDCF">
                    <rect id="Rectangle-path" x="2.8758125" y="0.077515625" width="1.69709375" height="0.621671875"></rect>
                    <rect id="Rectangle-path" x="0.040390625" y="1.20346875" width="2.946625" height="0.623046875"></rect>
                    <rect id="Rectangle-path" x="0.040390625" y="6.41746875" width="2.946625" height="0.623046875"></rect>
                    <rect id="Rectangle-path" x="0.040390625" y="13.1625313" width="2.946625" height="0.621671875"></rect>
                    <rect id="Rectangle-path" x="0.040390625" y="7.54376562" width="1.21446875" height="0.623046875"></rect>
                    <rect id="Rectangle-path" x="3.683625" y="6.41746875" width="7.70567188" height="0.623046875"></rect>
                    <rect id="Rectangle-path" x="3.19085938" y="9.79223438" width="2.68090625" height="0.6221875"></rect>
                    <rect id="Rectangle-path" x="3.2731875" y="12.045" width="2.68090625" height="0.621328125"></rect>
                    <rect id="Rectangle-path" x="3.2731875" y="21.0385313" width="2.68090625" height="0.621328125"></rect>
                </g>
                <g id="Group" transform="translate(32.312500, 38.500000)" fill="#FFD213">
                    <rect id="Rectangle-path" x="1.24626563" y="0.167234375" width="4.35342188" height="0.6221875"></rect>
                    <rect id="Rectangle-path" x="1.24626563" y="2.42" width="1.89028125" height="0.621328125"></rect>
                    <rect id="Rectangle-path" x="0.102265625" y="4.664" width="2.222" height="0.62253125"></rect>
                    <rect id="Rectangle-path" x="0.102265625" y="9.16523438" width="4.266625" height="0.6235625"></rect>
                    <rect id="Rectangle-path" x="1.49273437" y="11.4135313" width="1.573" height="0.621328125"></rect>
                    <rect id="Rectangle-path" x="12.3122656" y="6.91246875" width="2.222" height="0.6208125"></rect>
                </g>
                <rect id="Rectangle-path" fill="#D94C3B" x="38.7727656" y="38.6672344" width="2.39885938" height="0.6221875"></rect>
                <rect id="Rectangle-path" fill="#FFD213" x="41.6284687" y="38.6672344" width="1.13523438" height="0.6221875"></rect>
                <g id="Group" transform="translate(26.984375, 33.000000)" fill="#D94C3B">
                    <rect id="Rectangle-path" x="12.263625" y="2.29246875" width="5.5391875" height="0.623046875"></rect>
                    <rect id="Rectangle-path" x="18.929625" y="2.29246875" width="3.39332813" height="0.623046875"></rect>
                    <rect id="Rectangle-path" x="0.040390625" y="0.03953125" width="4.398625" height="0.62390625"></rect>
                    <rect id="Rectangle-path" x="0.040390625" y="1.166" width="6.23648437" height="0.6208125"></rect>
                    <rect id="Rectangle-path" x="1.703625" y="3.41876562" width="7.14914062" height="0.623046875"></rect>
                    <rect id="Rectangle-path" x="1.703625" y="11.2904688" width="7.14914062" height="0.62253125"></rect>
                    <rect id="Rectangle-path" x="3.969625" y="12.4124688" width="4.3071875" height="0.6208125"></rect>
                    <rect id="Rectangle-path" x="3.969625" y="15.7915312" width="2.07023438" height="0.623046875"></rect>
                    <rect id="Rectangle-path" x="8.39609375" y="15.7915312" width="4.34723438" height="0.623046875"></rect>
                    <rect id="Rectangle-path" x="9.69839063" y="16.9135313" width="3.0435625" height="0.621328125"></rect>
                    <rect id="Rectangle-path" x="10.3998125" y="12.4124688" width="6.80951563" height="0.6208125"></rect>
                    <rect id="Rectangle-path" x="10.3998125" y="14.6652344" width="6.80951563" height="0.6235625"></rect>
                </g>
                <g id="Group" transform="translate(28.531250, 37.468750)" fill="#8ECDCF">
                    <rect id="Rectangle-path" x="0.15675" y="0.076484375" width="0.98690625" height="0.62253125"></rect>
                    <rect id="Rectangle-path" x="0.15675" y="2.32478125" width="2.52690625" height="0.623046875"></rect>
                    <rect id="Rectangle-path" x="0.15675" y="5.69525" width="2.52690625" height="0.62253125"></rect>
                    <rect id="Rectangle-path" x="0.15675" y="7.94371875" width="1.69657813" height="0.6208125"></rect>
                    <rect id="Rectangle-path" x="0.15675" y="10.1964844" width="2.90795313" height="0.6235625"></rect>
                    <rect id="Rectangle-path" x="0.15675" y="11.3227812" width="1.56767188" height="0.623046875"></rect>
                    <rect id="Rectangle-path" x="5.02751563" y="11.3227812" width="1.33323437" height="0.623046875"></rect>
                    <rect id="Rectangle-path" x="7.20551563" y="7.94371875" width="1.14176562" height="0.6208125"></rect>
                </g>
                <g id="Group" transform="translate(30.078125, 37.468750)" fill="#D94C3B">
                    <rect id="Rectangle-path" x="0.097109375" y="0.076484375" width="1.5571875" height="0.62253125"></rect>
                    <rect id="Rectangle-path" x="0.097109375" y="9.07001562" width="4.46290625" height="0.621671875"></rect>
                    <rect id="Rectangle-path" x="5.209875" y="9.07001562" width="3.54646875" height="0.621671875"></rect>
                    <rect id="Rectangle-path" x="8.94110937" y="9.07001562" width="7.82890625" height="0.621671875"></rect>
                </g>
                <rect id="Rectangle-path" fill="#FFD213" x="31.9924687" y="37.5452344" width="1.2684375" height="0.62253125"></rect>
                <rect id="Rectangle-path" fill="#D94C3B" x="33.5587656" y="37.5452344" width="4.35342188" height="0.62253125"></rect>
                <rect id="Rectangle-path" fill="#FFD213" x="36.2384688" y="36.4187656" width="1.277375" height="0.623046875"></rect>
                <rect id="Rectangle-path" fill="#FF8E31" x="38.7727656" y="36.4187656" width="2.39885938" height="0.623046875"></rect>
                <rect id="Rectangle-path" fill="#D94C3B" x="33.9284688" y="34.166" width="6.237" height="0.6208125"></rect>
                <g id="Group" transform="translate(40.562500, 34.031250)" fill="#FF8E31">
                    <rect id="Rectangle-path" x="6.17873437" y="0.13475" width="1.9408125" height="0.6208125"></rect>
                    <rect id="Rectangle-path" x="0.03196875" y="0.13475" width="3.89623438" height="0.6208125"></rect>
                </g>
                <g id="Group" transform="translate(44.687500, 34.031250)" fill="#FFD213">
                    <rect id="Rectangle-path" x="0.10003125" y="0.13475" width="1.27548438" height="0.6208125"></rect>
                    <rect id="Rectangle-path" x="4.42526563" y="0.13475" width="1.27376563" height="0.6208125"></rect>
                </g>
                <rect id="Rectangle-path" fill="#D94C3B" x="32.8592344" y="33.0395312" width="6.75571875" height="0.62390625"></rect>
                <rect id="Rectangle-path" fill="#8ECDCF" x="31.7327656" y="33.0395312" width="0.81571875" height="0.62390625"></rect>
                <rect id="Rectangle-path" fill="#D94C3B" x="30.3577656" y="30.0784688" width="1.19985937" height="0.623046875"></rect>
                <rect id="Rectangle-path" fill="#FFD213" x="31.812" y="30.0784688" width="0.9631875" height="0.623046875"></rect>
                <polygon id="Shape" fill="#34495E" points="57.8151406 43.9785156 57.8151406 43.5129063 57.5832812 43.5129063 57.5832812 43.2788125 57.3491875 43.2788125 57.3491875 43.0452344 57.1142344 43.0452344 57.1142344 42.8111406 56.8818594 42.8111406 56.8818594 42.5804844 56.6455313 42.5804844 56.6455313 42.3420938 56.4150469 42.3420938 56.4150469 42.1097188 56.1809531 42.1097188 56.1809531 41.8752813 55.9465156 41.8752813 55.9465156 41.6437656 55.7110469 41.6437656 55.7110469 41.4084688 55.4783281 41.4084688 55.4783281 41.1755781 55.2428594 41.1755781 55.2428594 40.9411406 55.009625 40.9411406 55.009625 44.9155781 55.4783281 44.9155781 55.4783281 44.6802813 55.7110469 44.6802813 55.7110469 44.4475625 55.9465156 44.4475625 55.9465156 44.2115781 56.1809531 44.2115781 56.1809531 44.6802813 56.4150469 44.6802813 56.4150469 45.1479531 56.6455313 45.1479531 56.6455313 45.3825625 57.1142344 45.3825625 57.1142344 45.1479531 57.3491875 45.1479531 57.3491875 44.6802813 57.1142344 44.6802813 57.1142344 44.2115781 56.8818594 44.2115781 56.8818594 43.9785156"></polygon>
            </g>
        </g>
    </g>
</svg>