<?xml version="1.0" encoding="UTF-8" standalone="no"?>
<svg width="182px" height="182px" viewBox="0 0 182 182" version="1.1" xmlns="http://www.w3.org/2000/svg" xmlns:xlink="http://www.w3.org/1999/xlink">
    <!-- Generator: Sketch 41.2 (35397) - http://www.bohemiancoding.com/sketch -->
    <title>log-in-button-with-arrow</title>
    <desc>Created with Sketch.</desc>
    <defs></defs>
    <g id="Page-1" stroke="none" stroke-width="1" fill="none" fill-rule="evenodd">
        <g id="Login-Screen" transform="translate(-276.000000, -358.000000)" fill="#353534">
            <g id="log-in-button-with-arrow" transform="translate(276.000000, 358.000000)">
                <g id="Capa_1">
                    <g id="Group">
                        <path d="M90.9891784,0.00147567568 C40.7375027,0.00147567568 0,40.7389784 0,90.9906541 C0,141.235935 40.7375027,181.976389 90.9891784,181.976389 C141.240854,181.976389 181.978357,141.235935 181.978357,90.9906541 C181.974914,40.736027 141.234459,0.00147567568 90.9891784,0.00147567568 Z M90.9921297,175.257146 C45.2801243,175.257146 8.08424324,138.063724 8.08424324,92.3551622 C8.08424324,46.6436486 45.2801243,9.45367027 90.9921297,9.45367027 C136.703643,9.45367027 173.884768,46.6466 173.884768,92.3551622 C173.884768,138.063724 136.703643,175.257146 90.9921297,175.257146 Z" id="Shape"></path>
                        <path d="M90.9921297,21.5812649 C54.3673351,21.5812649 24.1538595,49.5531892 20.5812486,85.2502757 L88.1342378,85.2502757 L82.9339568,80.0504865 C80.3716919,77.4867459 80.3716919,73.3396054 82.9339568,70.7773405 C85.4962216,68.2150757 89.6463135,68.2150757 92.2075946,70.7773405 L108.601859,87.1676703 C108.601859,87.1676703 108.601859,87.178 108.608254,87.178 L113.239416,91.8081784 L108.608254,96.4408162 L108.601859,96.4437676 L93.2991027,111.747016 C92.0172324,113.028395 90.3452919,113.669822 88.6630216,113.669822 C86.9900973,113.669822 85.3093027,113.028395 84.0259568,111.747016 C81.4646757,109.182784 81.4646757,105.036135 84.0259568,102.474854 L88.1347297,98.3660811 L20.5281243,98.3660811 C23.5940865,134.581622 53.9979243,163.123157 90.9921297,163.123157 C130.01047,163.123157 161.756681,131.376946 161.756681,92.3581135 C161.757173,53.3368216 130.010962,21.5812649 90.9921297,21.5812649 Z" id="Shape"></path>
                    </g>
                </g>
            </g>
        </g>
    </g>
</svg>