<?xml version="1.0" encoding="utf-8"?>
<!-- Generator: Adobe Illustrator 16.0.0, SVG Export Plug-In . SVG Version: 6.00 Build 0)  -->
<!DOCTYPE svg PUBLIC "-//W3C//DTD SVG 1.1//EN" "http://www.w3.org/Graphics/SVG/1.1/DTD/svg11.dtd">
<svg version="1.1" id="Layer_1" xmlns="http://www.w3.org/2000/svg" xmlns:xlink="http://www.w3.org/1999/xlink" x="0px" y="0px"
	 width="612px" height="200px" viewBox="0 0 612 200" enable-background="new 0 0 612 200" xml:space="preserve">
<path fill="none" stroke="#6FA341" stroke-miterlimit="10" d="M49.673,168.553"/>
<g>
	<g>
		<path fill="#726658" d="M354.707,112.328v-0.023l-11.209-30.841l-10.411,40.556l-12.736,49.651h55.91
			c0.009-0.003,0.023-0.003,0.034-0.005L354.707,112.328z"/>
	</g>
</g>
<g>
	<g>
		<path fill="#4DC2C3" d="M354.707,112.328v-0.023l-11.209-30.841l-10.411,40.556l-12.736,49.651h55.91
			c0.009-0.003,0.023-0.003,0.034-0.005L354.707,112.328z"/>
	</g>
</g>
<g opacity="0.1">
	<g>
		<path d="M354.707,112.328v-0.023l-11.209-30.841l-0.076,0.361l-0.362,58.864v0.962l-0.18,30.021h33.381
			c0.009-0.003,0.023-0.003,0.034-0.005L354.707,112.328z"/>
	</g>
</g>
<g>
	<g>
		<polygon fill="#4DC2C3" points="453.739,92.833 435.866,49.238 435.75,49.649 420.309,103.134 402.205,165.926 483.69,165.926 		
			"/>
	</g>
</g>
<g opacity="0.1">
	<g>
		<polygon points="453.739,92.833 435.866,49.238 435.75,49.649 435.269,129.441 435.269,131.497 435.052,165.926 483.69,165.926 		
			"/>
	</g>
</g>
<g>
	<g>
		<polygon fill="#4DC2C3" points="576.467,141.526 497.97,1 497.753,1.436 497.753,1.46 453.739,93.58 435.79,131.107 
			435.269,132.242 418.795,166.672 590.51,166.672 		"/>
	</g>
</g>
<g>
	<g>
		<path fill="#726658" d="M434.297,136.337l-0.525-0.919l-14.957-26.307l-36.89-64.895l-0.171,0.432l-26.865,67.581v0.024
			l-11.499,28.918l-0.217,0.555l-11.983,30.176h45.357c0.107-0.007,0.191-0.027,0.313-0.027c0.095,0,0.174,0.016,0.269,0.023
			c1.277-0.109,2.562-0.168,3.848-0.104c0.212,0.011,0.425,0.07,0.635,0.107h72.905L434.297,136.337z"/>
	</g>
</g>
<g>
	<g>
		<path fill="#4DC2C3" d="M434.297,136.337l-0.525-0.919l-14.957-26.307l-36.89-64.895l-0.171,0.432l-26.865,67.581v0.024
			l-11.499,28.918l-0.217,0.555l-11.983,30.176h45.357c0.107-0.007,0.191-0.027,0.313-0.027c0.095,0,0.174,0.016,0.269,0.023
			c1.277-0.109,2.562-0.168,3.848-0.104c0.212,0.011,0.425,0.07,0.635,0.107h72.905L434.297,136.337z"/>
	</g>
</g>
<g>
	<g>
		<polygon fill="#726658" points="343.39,141.172 343.173,140.783 343.173,140.761 333.152,121.998 301.505,62.809 301.368,63.146 
			301.368,63.171 277.38,127.342 260.715,171.902 359.82,171.902 		"/>
	</g>
</g>
<g>
	<g>
		<polygon fill="#4DC2C3" points="343.39,141.172 343.173,140.783 343.173,140.761 333.152,121.998 301.505,62.809 301.368,63.146 
			301.368,63.171 277.38,127.342 260.715,171.902 359.82,171.902 		"/>
	</g>
</g>
<g opacity="0.1">
	<g>
		<polygon points="343.39,141.172 343.173,140.783 343.173,140.761 333.152,121.998 301.505,62.809 301.368,63.146 301.368,63.171 
			300.771,165.495 300.733,171.902 359.82,171.902 		"/>
	</g>
</g>
<g>
	<g>
		<path fill="#726658" d="M167.34,127.224l-15.093-31.13l-7.342-15.134L109.804,8.635l-0.253,0.462L23.033,167.349l-2.486,4.554
			h167.365c0.347-0.092,0.704-0.143,1.061-0.125L167.34,127.224z"/>
	</g>
</g>
<g>
	<g>
		<path fill="#4DC2C3" d="M167.34,127.224l-15.093-31.13l-7.342-15.134L109.804,8.635l-0.253,0.462L23.033,167.349l-2.486,4.554
			h167.365c0.347-0.092,0.704-0.143,1.061-0.125L167.34,127.224z"/>
	</g>
</g>
<g>
	<g>
		<path fill="#726658" d="M300.771,165.495l-23.39-38.153L214.368,24.509l-0.215,0.508l-41.279,96.449l-5.534,12.961L151.857,170.5
			v0.121l-0.545,1.281h36.6c0.499-0.113,1.017-0.133,1.544-0.051c0.079-0.013,0.263,0.01,0.587,0.117
			c0.115-0.001,0.227-0.001,0.349,0.012c0.298-0.041,0.593-0.068,0.822-0.071v-0.007h113.479L300.771,165.495z"/>
	</g>
</g>
<g>
	<g>
		<path fill="#4DC2C3" d="M300.771,165.495l-23.39-38.153L214.368,24.509l-0.215,0.508l-41.279,96.449l-5.534,12.961L151.857,170.5
			v0.121l-0.545,1.281h36.6c0.499-0.113,1.017-0.133,1.544-0.051c0.079-0.013,0.263,0.01,0.587,0.117
			c0.115-0.001,0.227-0.001,0.349,0.012c0.298-0.041,0.593-0.068,0.822-0.071v-0.007h113.479L300.771,165.495z"/>
	</g>
</g>
<g>
	<g>
		<path fill="#4DC2C3" d="M190.651,170.223l-18.338-50.437l-20.278-55.829l-0.096,0.337v0.048l-7.596,29.595l-19.619,76.285h62.627
			c0.499-0.115,1.013-0.135,1.542-0.053c0.078-0.012,0.262,0.008,0.586,0.119c0.114-0.004,0.228,0,0.348,0.012
			c0.298-0.042,0.596-0.067,0.825-0.07L190.651,170.223z"/>
	</g>
</g>
<rect x="418.042" y="172.373" fill="none" width="32.222" height="9.639"/>
<path fill="none" d="M450.264,160.154v12.029c-0.082-0.068-0.146-0.137-0.226-0.204c-7.025-6.59-18.536-10.892-31.559-10.892h-0.438
	v-0.934H450.264z"/>
<polyline fill="#FFFFFF" points="98.346,30.427 101.989,34.352 108.15,33.791 110.955,28.187 115.717,32.67 119.078,28.467 
	109.804,8.635 "/>
<polygon fill="#FFFFFF" points="207.057,41.45 209.489,45.371 212.102,40.327 216.025,40.513 217.521,42.942 219.573,39.58 
	224.432,40.888 214.368,24.509 "/>
<polygon fill="#FFFFFF" points="490.049,16.792 490.235,28.562 495.472,20.717 499.392,28.562 500.324,21.275 506.675,25.011 
	508.354,19.407 497.97,1 "/>
<g opacity="0.1">
	<g>
		<path d="M165.089,122.492l-14.618-30.036l-7.108-14.599L109.368,8.075l-0.246,0.444L95.991,165.6h89.027
			c0.334-0.09,0.676-0.138,1.025-0.12L165.089,122.492z"/>
	</g>
</g>
<g opacity="0.1">
	<g>
		<polygon points="297.107,159.711 274.696,123.123 214.319,24.509 214.116,24.925 214.116,24.995 213.259,165.854 300.862,165.854 
					"/>
	</g>
</g>
<g opacity="0.1">
	<g>
		<polygon points="576.467,141.526 497.97,1 497.753,1.436 497.753,1.46 490.667,166.672 590.51,166.672 		"/>
	</g>
</g>
<polygon opacity="0.1" points="152.247,95.533 186.042,164.919 188.939,165.291 152.499,65.415 "/>
<polygon fill="#FFFFFF" points="376.854,56.768 377.975,66.573 380.213,60.129 386.939,61.53 389.182,57.047 381.925,44.217 "/>
<g opacity="0.1">
	<g>
		<path d="M434.297,136.337l-0.525-0.919l-14.957-26.307l-36.89-64.895l-0.171,0.384v0.048l-0.762,127.148
			c0.217,0.014,0.411,0.068,0.619,0.105h72.905L434.297,136.337z"/>
	</g>
</g>
<path fill="#478A91" d="M18.77,188.569c0,4.211,4.538,7.624,10.142,7.624H585.26c5.6,0,10.138-3.413,10.138-7.624v-14.786
	c0-4.205-4.538-7.62-10.138-7.62H28.912c-5.604,0-10.142,3.415-10.142,7.62V188.569z"/>
<path opacity="0.1" d="M595.316,183.709c-0.437,7.09-2.67,12.484-5.36,12.484H24.211c-2.694,0-4.924-5.395-5.363-12.484H595.316z"/>
</svg>
