<?xml version="1.0" encoding="UTF-8" standalone="no"?>
<svg width="145px" height="124px" viewBox="0 0 145 124" version="1.1" xmlns="http://www.w3.org/2000/svg" xmlns:xlink="http://www.w3.org/1999/xlink">
    <!-- Generator: Sketch 41.2 (35397) - http://www.bohemiancoding.com/sketch -->
    <title>speech-bubble</title>
    <desc>Created with Sketch.</desc>
    <defs></defs>
    <g id="Page-1" stroke="none" stroke-width="1" fill="none" fill-rule="evenodd">
        <g id="Desktop-HD" transform="translate(-648.000000, -593.000000)" fill="#000000">
            <g id="speech-bubble" transform="translate(648.000000, 593.000000)">
                <g id="Capa_1">
                    <path d="M10.6930102,99.5313793 L18.4833571,99.5313793 L18.4833571,123.988394 L47.7286735,99.5313793 L78.4695612,99.5313793 C84.3636633,99.5313793 89.1605,94.544197 89.1605,88.4150542 L89.1605,67.3332217 L97.2716224,67.3332217 L126.516643,91.7810739 L126.516643,67.3332217 L134.309061,67.3332217 C140.203163,67.3332217 145,62.3435961 145,56.2123153 L145,11.127931 C145,4.99878818 140.203163,0.0116059113 134.309061,0.0116059113 L66.5307347,0.0116059113 C60.6342653,0.0116059113 55.8377245,4.99878818 55.8377245,11.127931 L55.8377245,32.2143448 L10.6930102,32.2143448 C4.79683673,32.2143448 0,37.2018325 0,43.33067 L0,88.4150542 C0,94.544197 4.79683673,99.5313793 10.6930102,99.5313793 Z M64.8999286,11.127931 C64.8999286,10.1734975 65.6477143,9.36505419 66.5304388,9.36505419 L134.308765,9.36505419 C135.189418,9.36505419 135.937204,10.1734975 135.937204,11.127931 L135.937204,56.2123153 C135.937204,57.1691921 135.189418,57.9776355 134.308765,57.9776355 L117.453847,57.9776355 L117.453847,72.1698325 L100.483816,57.9776355 L89.1602041,57.9776355 L66.5304388,57.9776355 C65.6477143,57.9776355 64.8999286,57.1691921 64.8999286,56.2123153 L64.8999286,32.2143448 L64.8999286,11.127931 Z" id="Shape"></path>
                </g>
            </g>
        </g>
    </g>
</svg>