<?xml version="1.0" encoding="UTF-8" standalone="no"?>
<svg width="143px" height="123px" viewBox="0 0 143 123" version="1.1" xmlns="http://www.w3.org/2000/svg" xmlns:xlink="http://www.w3.org/1999/xlink">
    <!-- Generator: Sketch 41.2 (35397) - http://www.bohemiancoding.com/sketch -->
    <title>Page 1</title>
    <desc>Created with Sketch.</desc>
    <defs>
        <polygon id="path-1" points="186.526323 187.479544 186.526323 0.47744 0 0.47744 0 187.479544 186.526323 187.479544"></polygon>
    </defs>
    <g id="Page-1" stroke="none" stroke-width="1" fill="none" fill-rule="evenodd">
        <g id="Desktop-HD" transform="translate(-188.000000, -601.000000)">
            <g id="Page-1" transform="translate(166.000000, 565.000000)">
                <g id="Group-3" transform="translate(0.000000, 0.042560)">
                    <mask id="mask-2" fill="white">
                        <use xlink:href="#path-1"></use>
                    </mask>
                    <g id="Clip-2"></g>
                </g>
                <path d="M112.846545,62.59604 C111.341029,48.07396 99.0998032,36.753 84.2114161,36.753 C81.4823839,36.753 78.8428032,37.14516 76.3411903,37.85804 C76.3048032,37.8474 76.2684161,37.83372 76.2335452,37.82308 C71.1105452,39.30356 66.572771,42.19612 63.0508032,46.02348 C60.9342871,45.19812 58.6373516,44.75276 56.2282226,44.75276 C46.5492548,44.75276 38.5865452,52.0974 37.5525452,61.51988 C29.0940613,62.21148 22.4443194,69.15484 22.4443194,77.81428 C22.4443194,86.92668 29.8127065,94.16644 38.9049323,94.16644 L90.8778355,94.16644 L106.869965,94.16644 C115.960674,94.16644 123.330577,86.93124 123.330577,77.8158 C123.330577,70.81468 118.980803,64.9946 112.846545,62.59604" id="Fill-4" fill="#000000"></path>
                <path d="M152.100035,78.032096 C150.377713,61.438256 136.389906,48.500016 119.383487,48.500016 C116.260261,48.500016 113.246197,48.949936 110.385261,49.764656 C110.344326,49.754016 110.306423,49.737296 110.263971,49.726656 C104.411713,51.416896 99.2235194,54.724416 95.2027452,59.094416 C92.7860355,58.150496 90.1585839,57.644336 87.4068097,57.644336 C76.3466484,57.644336 67.2468419,66.033216 66.0657774,76.800896 C56.401971,77.591296 48.8016161,85.512016 48.8016161,95.402656 C48.8016161,105.817696 57.2237129,114.069776 67.6107129,114.069776 L126.997487,114.069776 L145.269874,114.069776 C155.659906,114.069776 164.078971,105.819216 164.078971,95.408736 C164.078971,87.407456 159.110616,80.774176 152.100035,78.032096" id="Fill-6" fill="#404040"></path>
                <path d="M143.696132,132.242896 C143.696132,135.814896 140.807906,138.707456 137.248035,138.707456 C133.685132,138.707456 130.798423,135.814896 130.798423,132.242896 C130.798423,128.670896 137.248035,122.148576 137.248035,122.148576 C137.248035,122.148576 143.696132,128.670896 143.696132,132.242896" id="Fill-8" fill="#404040"></path>
                <path d="M137.248187,122.149184 L137.248187,138.709584 C140.809574,138.709584 143.696284,135.813984 143.696284,132.245024 C143.696284,128.671504 137.248187,122.149184 137.248187,122.149184" id="Fill-10" fill="#000000"></path>
                <path d="M114.409977,132.242896 C114.409977,135.814896 111.523268,138.707456 107.960365,138.707456 C104.398977,138.707456 101.513784,135.814896 101.513784,132.242896 C101.513784,128.670896 107.960365,122.148576 107.960365,122.148576 C107.960365,122.148576 114.409977,128.670896 114.409977,132.242896" id="Fill-12" fill="#404040"></path>
                <path d="M107.960516,122.149184 L107.960516,138.709584 C111.523419,138.709584 114.410129,135.813984 114.410129,132.245024 C114.410129,128.671504 107.960516,122.149184 107.960516,122.149184" id="Fill-14" fill="#000000"></path>
                <path d="M85.1268548,132.242896 C85.1268548,135.814896 82.238629,138.707456 78.6772419,138.707456 C75.1143387,138.707456 72.2291452,135.814896 72.2291452,132.242896 C72.2291452,128.670896 78.6772419,122.148576 78.6772419,122.148576 C78.6772419,122.148576 85.1268548,128.670896 85.1268548,132.242896" id="Fill-16" fill="#404040"></path>
                <path d="M78.6758774,122.149184 L78.6758774,138.709584 C82.2387806,138.709584 85.1254903,135.813984 85.1254903,132.245024 C85.1270065,128.671504 78.6758774,122.149184 78.6758774,122.149184" id="Fill-18" fill="#000000"></path>
                <path d="M129.053055,152.05792 C129.053055,155.62992 126.164829,158.52248 122.604958,158.52248 C119.042055,158.52248 116.155345,155.6284 116.155345,152.05792 C116.155345,148.48592 122.604958,141.9636 122.604958,141.9636 C122.604958,141.9636 129.053055,148.48592 129.053055,152.05792" id="Fill-20" fill="#404040"></path>
                <path d="M122.60511,141.964056 L122.60511,158.524456 C126.168013,158.524456 129.053206,155.628856 129.053206,152.058376 C129.053206,148.486376 122.60511,141.964056 122.60511,141.964056" id="Fill-22" fill="#000000"></path>
                <path d="M99.7684161,152.05792 C99.7684161,155.62992 96.8801903,158.52248 93.3203194,158.52248 C89.7574161,158.52248 86.8722226,155.6284 86.8722226,152.05792 C86.8722226,148.48592 93.3203194,141.9636 93.3203194,141.9636 C93.3203194,141.9636 99.7684161,148.48592 99.7684161,152.05792" id="Fill-24" fill="#404040"></path>
                <path d="M93.3189548,141.964056 L93.3189548,158.524456 C96.8803419,158.524456 99.7685677,155.628856 99.7685677,152.058376 C99.7685677,148.486376 93.3189548,141.964056 93.3189548,141.964056" id="Fill-26" fill="#000000"></path>
                <path d="M55.8420645,132.242896 C55.8420645,135.814896 52.9538387,138.707456 49.3924516,138.707456 C45.8295484,138.707456 42.9443548,135.814896 42.9443548,132.242896 C42.9443548,128.670896 49.3924516,122.148576 49.3924516,122.148576 C49.3924516,122.148576 55.8420645,128.670896 55.8420645,132.242896" id="Fill-28" fill="#404040"></path>
                <path d="M49.3926032,122.149184 L49.3926032,138.709584 C52.9539903,138.709584 55.8422161,135.813984 55.8422161,132.245024 C55.8422161,128.671504 49.3926032,122.149184 49.3926032,122.149184" id="Fill-30" fill="#000000"></path>
                <path d="M70.4837774,152.05792 C70.4837774,155.62992 67.5970677,158.52248 64.0356806,158.52248 C60.4727774,158.52248 57.5860677,155.6284 57.5860677,152.05792 C57.5860677,148.48592 64.0356806,141.9636 64.0356806,141.9636 C64.0356806,141.9636 70.4837774,148.48592 70.4837774,152.05792" id="Fill-32" fill="#404040"></path>
                <path d="M64.0343161,142.064984 L64.0343161,158.625384 C67.5972194,158.625384 70.483929,155.731304 70.483929,152.160824 C70.483929,148.588824 64.0343161,142.064984 64.0343161,142.064984" id="Fill-34" fill="#000000"></path>
            </g>
        </g>
    </g>
</svg>